<?xml version="1.0" encoding="utf-8"?>
<!-- Generator: Adobe Illustrator 27.4.0, SVG Export Plug-In . SVG Version: 6.00 Build 0)  -->
<svg version="1.1" id="Layer_1" xmlns="http://www.w3.org/2000/svg" xmlns:xlink="http://www.w3.org/1999/xlink" x="0px" y="0px"
	 viewBox="0 0 300 300" style="enable-background:new 0 0 300 300;" xml:space="preserve">
<style type="text/css">
	.st0{fill:#FFFFFF;}
</style>
<g>
	<path class="st0" d="M186.9,91.1c4.5,0,8.1,1.7,11,5c6,6.8,4,6-5.8,100.4c-0.5,4.9-0.9,9.9-1.6,14.8c-0.9,6.4-6.3,12-15.1,12
		c-21.6,0-43.2-0.1-64.8,0.1c-6.8,0-14.2-4.8-15-13.8L84.9,106.1c-0.5-7.4,5.9-14.9,14.2-14.9l60.5,0c-0.1,0.6-18.5,58.2-19.4,60.9
		c-3.1,9.8-7.1,16.8-0.6,23.6c7,7.2,18.6,4.3,21.7-5.2C186.7,91.2,186,93.2,186.9,91.1L186.9,91.1z"/>
	<path class="st0" d="M204.8,235.3c14.7,2,15.1,27.3-2.8,27.3c-39.2,0-78.4,0-117.5,0c-14.6,0-17.5-16.5-10-23.8
		c3.5-3.5,7.2-3.7,11.8-3.7C204.8,235.1,202.3,235,204.8,235.3L204.8,235.3z"/>
	<path class="st0" d="M143.7,165.3c33.9-105.4,33-104.3,34.7-105.2c43.5-22.3,42.2-21.7,43.5-22.3c6.4-2.6,10.7,6.5,4.7,9.7
		c-3.3,1.8-6.6,3.5-10,5.2c-31.7,16.3-30,14.7-30.9,17.7l-31.4,97.8C151.7,175.3,141.9,172,143.7,165.3L143.7,165.3z"/>
</g>
</svg>
