<?xml version="1.0" encoding="utf-8"?>
<!-- Generator: Adobe Illustrator 27.4.0, SVG Export Plug-In . SVG Version: 6.00 Build 0)  -->
<svg version="1.1" id="Layer_1" xmlns="http://www.w3.org/2000/svg" xmlns:xlink="http://www.w3.org/1999/xlink" x="0px" y="0px"
	 viewBox="0 0 300 300" style="enable-background:new 0 0 300 300;" xml:space="preserve">
<style type="text/css">
	.st0{fill:#FFFFFF;}
</style>
<g>
	<path class="st0" d="M53.1,131.9c9.7,7.3,6.6,4.9,137.2,4.8c10.1,0,11.5-1.2,17.4-5c1.1,29.6-9.2,53.7-33.7,70.7
		C123.6,237.6,50.5,202.7,53.1,131.9z"/>
	<path class="st0" d="M66.1,127.9c-17.5-2.2-19.4-32.5,4.4-32.5c40,0,80.1,0,120.2,0c23.3,0,21.3,31,4,32.5
		C189.3,128.4,70.5,128.5,66.1,127.9z"/>
	<path class="st0" d="M197.6,192.5c4.4-5.5,8-11.4,11-17.8c20.1,6.3,36.5-8.1,37.4-24.5c1.1-20-15.9-31.1-30.4-30
		c1.2-6.9,1.3-13.8-1.7-20.6c12.5-1.8,30.7,3.5,42.6,18.6C288.6,158.8,242.7,214.1,197.6,192.5L197.6,192.5z"/>
</g>
</svg>
