<?xml version="1.0" encoding="utf-8"?>
<!-- Generator: Adobe Illustrator 27.4.0, SVG Export Plug-In . SVG Version: 6.00 Build 0)  -->
<svg version="1.1" id="Layer_1" xmlns="http://www.w3.org/2000/svg" xmlns:xlink="http://www.w3.org/1999/xlink" x="0px" y="0px"
	 viewBox="0 0 300 300" style="enable-background:new 0 0 300 300;" xml:space="preserve">
<style type="text/css">
	.st0{fill:#FFFFFF;}
</style>
<g>
	<path class="st0" d="M194.1,174.5h-88.2c0-1-0.1-2,0-2.9c0-0.3,6.3-75.1,6.3-75.4c3.1-24.8,29.7-37.2,51.2-29.5
		c13.4,4.8,21.5,14.3,24.1,28.3C187.8,96.9,193.6,167.2,194.1,174.5L194.1,174.5z"/>
	<path class="st0" d="M57.9,218.6c-9.6,0-16-7-16.8-14.8c-1.1-12.1,4.9-20.7,19.8-20.7c184.3,0,181-0.2,184.6,0.4
		c18.7,3.6,18.3,33.6-2.3,35L57.9,218.6L57.9,218.6z"/>
	<path class="st0" d="M59.1,174.5c5.6-52.2,3.2-67.6,24.1-78.9c8.1-4.4,15.2-4,21.6-4c-1.1,6.7-6.5,76.6-7.2,82.9H59.1z"/>
	<path class="st0" d="M195.2,91.7c20.1-1.9,35.3,10.2,39.2,27.1l6.2,55.4c-1.8,0.5-36.8,0.4-38.6-0.1
		C199.8,146.8,197.5,119.3,195.2,91.7L195.2,91.7z"/>
</g>
</svg>
