<?xml version="1.0" encoding="utf-8"?>
<!-- Generator: Adobe Illustrator 27.4.0, SVG Export Plug-In . SVG Version: 6.00 Build 0)  -->
<svg version="1.1" id="Layer_1" xmlns="http://www.w3.org/2000/svg" xmlns:xlink="http://www.w3.org/1999/xlink" x="0px" y="0px"
	 viewBox="0 0 300 300" style="enable-background:new 0 0 300 300;" xml:space="preserve">
<style type="text/css">
	.st0{fill:#FFFFFF;}
</style>
<g>
	<g>
		<path class="st0" d="M227.2,100.5c-8.1-0.7-15.3,1-21.7,5.8c-12.3-7.9-24.6-8.3-37.1-0.1c-12.1-7.7-24.4-8.2-36.9,0
			c-12.1-7.9-24.5-8.2-37.1,0c-6.3-4.4-13.4-6.6-21.3-5.8c7.7-22.3,32-47.9,67.2-52C181.8,43.8,215.4,69.7,227.2,100.5L227.2,100.5z
			"/>
		<path class="st0" d="M53.1,151.9c13,11.8,26.7,13.2,41.7,4.1c23.8,14.1,34.5-1.7,38.3,0.8c10.2,6.7,24.2,7,34.7-0.5
			c0.2-0.2,0.5-0.3,0.6-0.4c12.4,7.8,24.7,8.1,37.1,0c11.9,8.5,29.8,8.4,41.6-4.1c11.2,8.6,7.9,30.6-10,30.6
			c-58.1,0-116.2,0-174.3,0C46.6,182.4,40.8,162.1,53.1,151.9L53.1,151.9z"/>
		<path class="st0" d="M187.5,191.5c-1.6,20.1-3.2,40-4.8,60h-65.3c-1.6-20-3.2-40-4.8-60L187.5,191.5L187.5,191.5z"/>
		<path class="st0" d="M191.7,251.5c1.6-20,3.2-39.9,4.8-60h43.8c-5.9,42.3-4.6,41.4-11.3,48.7c-5.3,5.7-11.9,8.9-19.4,10.6
			C204,252,193.7,252,191.7,251.5z"/>
		<path class="st0" d="M108.3,251.4c-1.7,1.2-31.8,3-41.8-18.1c-2.3-4.8-1.7-5.2-6.7-41.8h43.7C104.2,195.1,108.3,251,108.3,251.4
			L108.3,251.4z"/>
		<path class="st0" d="M150.2,153c-10.8,0.1-21.7-8.4-22-21.4c-0.3-12.6,9.9-21.8,21.1-22.4c10.9-0.5,22.6,8.2,22.7,21.7
			C172,144.8,160.7,152.8,150.2,153L150.2,153z"/>
		<path class="st0" d="M88.1,113c-7.6,12.1-7.8,24.1-0.2,36.2c-6.1,5-18.1,5.7-26.2-1.8C40.7,128.1,67.6,98,88.1,113z"/>
		<path class="st0" d="M125,113c-7.6,12.1-7.8,24.1-0.1,36.2c-6.6,5.2-18.6,5.7-27-2.5c-8.2-8-9.1-20.8-1.3-29.8
			C104.5,107.6,117.3,107.2,125,113L125,113z"/>
		<path class="st0" d="M175.1,149.1c8.3-11.7,7.1-26.4,0-36.1c7.1-5.5,19.1-5.6,27.3,2.6c8.9,8.9,8.1,22.4,0.7,30.2
			C195,154.5,182.6,154.8,175.1,149.1L175.1,149.1z"/>
		<path class="st0" d="M212.1,149.2c7.7-12.2,7.4-24.2,0-36.3c6.3-5.2,18.5-5.6,26.7,2.2c9.5,9,8.3,22.8,1.7,30.2
			C232.7,154,220.3,155.1,212.1,149.2L212.1,149.2z"/>
	</g>
</g>
<image style="overflow:visible;" width="29" height="30" xlink:href="731A2980.jpg"  transform="matrix(1 0 0 1 -254.9653 99.117)">
</image>
</svg>
