<?xml version="1.0" encoding="utf-8"?>
<!-- Generator: Adobe Illustrator 27.4.0, SVG Export Plug-In . SVG Version: 6.00 Build 0)  -->
<svg version="1.1" id="Layer_1" xmlns="http://www.w3.org/2000/svg" xmlns:xlink="http://www.w3.org/1999/xlink" x="0px" y="0px"
	 viewBox="0 0 200 200" style="enable-background:new 0 0 200 200;" xml:space="preserve">
<style type="text/css">
	.st0{clip-path:url(#SVGID_00000009561418781110946050000007284354692894184884_);fill:#FF0043;}
	.st1{clip-path:url(#SVGID_00000009561418781110946050000007284354692894184884_);}
	.st2{fill:#FF4075;}
</style>
<g>
	<defs>
		<rect id="SVGID_1_" y="0" width="200" height="200"/>
	</defs>
	<clipPath id="SVGID_00000026157120410586058180000000160040246909686663_">
		<use xlink:href="#SVGID_1_"  style="overflow:visible;"/>
	</clipPath>
	
		<rect x="-75.83" y="-54.84" style="clip-path:url(#SVGID_00000026157120410586058180000000160040246909686663_);fill:#FF0043;" width="351.66" height="309.69"/>
	<g style="clip-path:url(#SVGID_00000026157120410586058180000000160040246909686663_);">
		<g>
			<g>
				<path class="st2" d="M28.31,89.02c1.34-1.19,2.14-0.45,2.87,0.2c2.61,2.29,3.68,4.64,9.56,15.17c0.52-1.09,1.07-1.83,1.24-2.65
					c1.21-5.73,4.5-10.41,7.57-15.2c0.19-0.29,0.67-0.39,1.05-0.59c1.2,1.13,0.83,2.44,0.53,3.57c-0.97,3.61-0.66,7.28-0.69,10.93
					c0,0.54,0.22,1.09,0.44,2.15c0.9-0.84,1.59-1.36,2.12-2.01c3.16-3.89,7.22-6.54,11.72-8.6c0.13-0.06,0.32,0.02,0.65,0.06
					c0.91,1.09,0.44,2.23-0.11,3.36c-7.37,15.1-7.9,15.66-7.8,17.98c0.43,0.29,0.81,0.63,1.25,0.84c3.58,1.7,5.52,4.81,7.37,8.13
					c8.47,15.27,12.14,32.65-5.02,36.06c-6.94,1.38-14.38,1.61-21.26-0.04c-1.8-0.43-3.27-1.68-4.22-3.31
					c-0.95-1.63-1.78-3.28-2.05-5.25c-0.34-2.51-1.3-4.94-1.67-7.45c-1.03-6.89,1.12-13.22,4.24-24.48
					c-3.42-5.81-5.7-8.24-10.65-11.9c-1.71-1.27-1.79-1.17-2.13-3c4.19,0.06,7.76,2.31,12.08,3.31
					C33.42,100.09,30.07,94.9,28.31,89.02z M49.34,90.96c-1.47,1.22-1.27,0.32-3.53,5.28c-1.16,2.56-1.62,5.33-2.41,8
					c-1.09,3.68,0.44,6.56,1.59,9.73c1.5-0.07,2.71-0.13,4.01-0.19c0.46-5.69-0.84-5.37-0.56-12.07c0.05-1.06,0.46-2.1,0.53-3.16
					C49.16,96.23,49.21,93.91,49.34,90.96z M54.85,113.29c7.97-17.5,6.82-13.71,7.85-17.56c-0.6-0.04-0.9-0.16-1.08-0.06
					c-5.05,2.76-8.8,6.77-10.93,12.09C49.34,111.16,51.51,113.69,54.85,113.29z M50.56,144.51c1.33-2.22,2.56-4.14,2.02-6.62
					c-1.52-0.71-2.93-1.36-4.51-2.09c-1.64,1.96-2.58,3.98-2.09,6.59C47.46,143.07,48.86,143.72,50.56,144.51z M41.5,132.44
					c-1.75,1.98-2.41,3.94-2.8,6.11c1.59,1.23,3.04,2.33,5.13,2.12c0.66-1.97,1.26-3.75,1.96-5.86
					C44.39,134.04,43.07,133.31,41.5,132.44z M34.16,96.66c-0.17,0.11-0.35,0.22-0.52,0.32c2.29,5.89,4.58,11.77,6.94,17.84
					c0.65-0.05,1.35-0.1,2.43-0.18C40.56,108.15,37.98,102.1,34.16,96.66z M49.99,146.9c-2.3-2.3-3.91-2.77-5.9-1.85
					c-0.43,1.23-0.86,2.46-1.3,3.73c0.98,1.73,2.81,1.94,4.36,2.49C48.86,151.87,49.27,149.24,49.99,146.9z M37.95,140.56
					c-1.2,1.85-2.26,3.4-1.75,5.49c1.34,1.15,2.77,2.01,4.67,2.16c0.79-1.71,1.71-3.27,1.23-5.54
					C40.85,142.04,39.43,141.31,37.95,140.56z M48.42,133.78c1.82,0.95,3.24,1.7,4.52,2.38c1.59-1.2,1.59-1.2,2.44-4.87
					c-1.68-0.9-3.14-2.43-5.63-2.07C49.32,130.68,48.92,132.07,48.42,133.78z M63.24,149.63c0.89-1.94,2.34-3.39,1.79-5.47
					c-2.66-1.56-2.66-1.56-4.7-1.47c-0.64,1.38-1.32,2.85-2.05,4.42C59.44,148.71,61.3,148.68,63.24,149.63z M51.07,127.05
					c1.67,0.76,3.2,1.46,4.98,2.27c0.62-1.9,1.13-3.45,1.73-5.28c-1.89-0.67-3.47-1.23-4.92-1.75
					C51.22,123.63,51.16,125.17,51.07,127.05z M67.71,136.97c-1.2-0.52-2.6-1.12-3.93-1.69c-1.52,1.56-2.19,3.05-1.99,4.92
					c1.53,1.11,2.96,2.27,5.04,1.36C67.12,140.18,68.68,139.16,67.71,136.97z M54.58,115.82c-0.35,1.54-1.9,2.72-0.88,4.68
					c1.32,0.6,2.67,1.64,4.45,1.05c1.03-1.43,1.93-2.82,1.24-4.6C58.07,115.64,56.56,115.22,54.58,115.82z M45.76,157.14
					c0.56-1.33,1.9-2.25,0.94-4.01c-1.33-0.52-2.83-1.11-4.26-1.67c-1.8,1.44-1.63,3.38-2.21,5.14
					C42.05,157.59,43.81,157.49,45.76,157.14z M62.01,132.07c1.39-1.7,1.86-3.56,1.99-5.51c-2.68-1.49-2.68-1.49-4.4-1.15
					C57.57,130.26,57.66,130.53,62.01,132.07z M47.51,127.31c-1.42-0.25-2.57-1.97-4.27-0.87c-1.34,3.02-1.34,3.02-0.94,4.62
					c1.44,0.25,2.61,2,4.62,0.87C46.83,130.46,48.8,129.34,47.51,127.31z M36.68,122.78c-0.61,1.69-1.03,2.85-1.47,4.07
					c1.15,1.74,2.81,2.19,4.71,2.51c0.99-1.61,1.83-3.08,1.07-5.06C39.64,123.83,38.29,123.35,36.68,122.78z M33.82,135.28
					c1.2,1.83,1.2,1.83,3.41,1.42c0.61-1.69,1.97-3.23,1.34-5.37c-1.31-0.53-2.38-1.92-4.08-1
					C34.27,131.9,34.06,133.46,33.82,135.28z M61.55,134.25c-1.31-0.73-2.47-1.38-3.51-1.96c-2.13,1.35-1.84,3.31-2.38,4.99
					c1.83,1.12,3.83,2.77,4.92-0.01C60.9,136.43,61.13,135.55,61.55,134.25z M37.44,115.86c0.27-0.12,0.55-0.24,0.82-0.37
					c-0.17-2.12-0.26-4.49-1.8-6.02c-1.39-1.38-3.37-2.46-6.17-2.24C32.89,110.38,35.16,113.12,37.44,115.86z M55.48,153.88
					c1.9,0.48,3.4,0.85,4.82,1.21c1.68-1.5,1.78-1.68,1.87-3.73c-1.42-0.61-2.91-1.25-4.73-2.04
					C56.78,150.85,56.21,152.17,55.48,153.88z M52.67,145.11c1.24,0.99,2.28,1.61,3.73,1.17c0.97-1.64,2.04-3.26,2.17-5.49
					c-1.52-0.04-2.38-1.84-4.05-0.88C53.92,141.61,53.32,143.3,52.67,145.11z M69.73,151.07c0.56-1.49,2.03-2.79,1.05-4.81
					c-1.06-0.61-2.18-1.3-3.77-0.63c-0.48,1.33-0.99,2.75-1.43,3.96C66.77,151.32,68.05,151.7,69.73,151.07z M64.19,132.51
					c1.17,1.61,2.59,2.58,4.67,2.38c0.3-2.46-0.4-4.34-2.4-6.68C64.67,129.07,64.98,131.01,64.19,132.51z M55.56,148.64
					c-1.34-0.52-2.36-0.91-3.6-1.39c-0.71,1.63-1.31,3.02-2.01,4.63c1.21,0.61,2.16,1.09,3.36,1.7
					C54.12,151.79,54.79,150.34,55.56,148.64z M48.47,125.67c1.32-1.45,1.93-2.55,1.39-4.01c-1.48-1.07-3.01-1.69-4.93-0.78
					c0,1.05,0,2.09,0,3.26C46.15,124.66,47.31,125.16,48.47,125.67z M35.52,148.05c-0.43,2.97,0.83,4.98,2.19,7.11
					c1.96-1.09,1.99-2.88,2.45-4.72C38.66,149.67,37.23,148.94,35.52,148.05z M37.62,120.26c0.98,1.62,2.56,1.89,3.92,2.39
					c1.71-0.5,1.78-1.65,1.49-3.01c-1.25-1.51-2.89-1.26-4.64-1.11C38.12,119.14,37.86,119.72,37.62,120.26z M50.23,119.71
					c1.77-0.8,1.91-2.22,1.94-3.96c-1.69,0-3.28,0-5.11,0c-0.1,1.02-0.18,1.93-0.26,2.76C48.09,118.96,49.09,119.31,50.23,119.71z
					 M61.71,119.2c-0.63,1.2-1.09,2.07-1.51,2.88c1.1,1.69,2.55,1.93,4.26,2.1C64.3,122.17,63.32,120.86,61.71,119.2z M52.31,155.16
					c-1.13-0.36-2.07-0.66-3.08-0.98c-0.75,1.75-0.54,1.09-0.83,2.53C50.65,157.92,51.34,157.7,52.31,155.16z M64.64,151.74
					c-0.59,1.29-1.02,2.25-1.5,3.31c2.36,0.26,2.36,0.26,3.87-1.57C66.37,153.01,65.73,152.54,64.64,151.74z M70.92,139.39
					c-2.04,1.2-2.45,2.41-1.79,4.19c0.57,0.04,1.16,0.08,2.09,0.14C71.12,142.25,71.03,141.02,70.92,139.39z M35.03,138.9
					c-2,0.63-2.2,1.42-0.95,3.36C35.89,141.29,35.9,141.27,35.03,138.9z M57.7,156.45c-1.04-0.4-2.12-1.07-3.28,0.03
					C55.55,157.88,56.62,157.08,57.7,156.45z"/>
			</g>
			<path class="st2" d="M125.12,62.36c0-1.73,0-3.53,0-5.62c-1.08-0.71-2.18-1.61-3.42-2.21c-2.55-1.23-3.54-3.45-3.92-5.98
				c-0.7-4.68-1.1-9.39-1.16-14.15c-0.04-2.76,0.5-4.88,2.77-6.38c0.1-0.68,0.18-1.26,0.26-1.83c0.58-4.26,3.89-2.34,6.47-6.31
				c0.4-0.62,1.2-0.98,1.65-1.31c0.51,0.12,0.74,0.1,0.82,0.2c1.96,2.41,5.02,3.73,6.52,6.61c0.92,1.77,3.47,2.43,3.33,6.59
				c-0.36,11.36,0.78,11.28-1.41,19.24c-1.02,3.69-4.11,2.54-5.29,6.85c0.26,1.06,0.55,2.26,0.85,3.49
				c1.39,1.43,2.68,2.04,5.98,2.75c0.44,0.67,1.01,1.53,1.52,2.3c-0.69,1.82-1.77,2.55-3.46,2.74c-4.47,0.51-9.48,1.65-15.32-0.25
				c-1.07-0.35-2.07-1.12-1.93-2.31c0.1-0.88,0.65-1.99,1.36-2.47C121.91,63.49,123.39,63.09,125.12,62.36z M135.58,34.73
				c-5.24,2.89-10.44,3.93-16.15,2.02c-0.22,0.79-0.55,1.4-0.54,2c0.05,2.9-0.04,5.84,0.36,8.7c1.32,9.36,6.24,2.46,8.48,11.77
				c0.7,2.92-0.6,4.76-3.46,5.5c-1.01,0.26-1.95,0.81-2.97,1.24c0.37,1.39,1.18,2,2.38,2c3.91,0,7.81-0.02,11.72-0.1
				c1.04-0.02,1.94-0.44,2.13-1.88c-1.32-0.44-2.62-0.94-3.96-1.28c-1.24-0.32-2.13-0.98-2.46-2.2c-1.96-7.13-1.33-6.47,4.22-11.9
				C136.78,44.9,137.59,39.98,135.58,34.73z M118.61,31.77c-0.04,1.53,0.43,2.78,1.72,3.18c1.72,0.53,3.57,1.05,5.33,0.94
				c4.02-0.24,7.78-1.47,10.89-4.33c0.42-1.08-0.1-2.03-0.92-2.57c-1.72-1.13-2.46-2.83-2.95-4.19c-1.69-1.35-3.03-2.42-4.64-3.7
				c-0.63,0.57-1.37,1.22-2.1,1.88c0.72,0.85,1.24,1.45,1.83,2.15c-0.39,0.37-0.67,0.63-0.99,0.94c-1.57-0.75-3.11-1.31-4.8-0.48
				c0,0.9,0,1.7,0,2.52c2.74,2.07,6.11,1.8,9.22,2.69c-0.45,1.04-1.23,1.13-1.93,1.03c-2.28-0.33-4.59-0.59-6.8-1.2
				C120.47,30.06,120.36,29.92,118.61,31.77z"/>
			<g>
				<path class="st2" d="M104.69,162.55c2.56,1.55,5.15,3.55,7.12,6.29c2.34,3.25,3.87,3.83,9.94,9.38
					c1.19,1.09,2.19,2.38,3.68,4.02c3.73,1.34,5.37,5.07,4.03,9.37c-0.67,2.15-1.79,3.46-3.84,4c-2.14,0.57-4.34,0.54-6.19-0.79
					c-11.48-8.25-12.47-9.21-27.2-22.22c-2.51-2.21-4.72-4.72-5.96-7.87c-1.42-3.58,0.12-8.95,4.88-9.75
					c5.38-0.91,6.48,3.73,10.7,4.86C102.8,160.1,103.49,161.36,104.69,162.55z M126.99,192.99c1.39-3.03,1.77-5.85-0.8-8.64
					c-0.7-0.06-1.58-0.13-1.97-0.16c-1.59,1.28-2.79,2.25-3.85,3.11c-3.29-0.93-1.7-3.81-1.39-5.67c0.19-1.12,0.28-2.25,0.4-3.24
					c-1.09-0.95-1.94-1.68-2.73-2.37c-2.09,1.12-2.35,4.96-6.15,3.44c0.01-2.17-0.06-4.3,0.03-6.43c0.15-3.55-1.74-6.29-5.62-7.55
					c-0.85,1.54-1.73,3.14-2.52,4.55c-1.53,0.54-2.55,0.26-3.37-1.04c-0.22-2.9-0.44-5.95-0.67-8.9c-1.21-1.05-4.78-5.05-8.73-2.78
					c-2.03,1.16-2,3.11-1.95,5.02c0.09,3.52,2.33,6.11,4.7,8.11c9.32,7.86,17.73,16.85,28.14,23.12
					C122.82,194.39,124.89,194.07,126.99,192.99z M101.41,162.08c-1.09,1.57-1.07,3.79,0.03,5.15
					C103.01,164.78,103,163.81,101.41,162.08z M114.28,175.9c-0.21-1.22,0.21-2.5-1.52-2.75c-0.46,1.42-1,2.79-0.2,4.55
					C113.23,177,113.72,176.48,114.28,175.9z M121.42,180.53c-0.72,1.12-1.2,2.18-0.82,3.57
					C122.79,182.76,122.9,182.29,121.42,180.53z"/>
			</g>
			<g>
				<path class="st2" d="M166.75,70.83c-6.07,1.38-12.04-5.43-16.63-9.82c-2.41-2.31,0.87-4.95,3.46-7.07
					c-0.97-4.02-2.33-7.67-1.38-11.13c0.75-2.72,3.24-3.34,5.45-1.53c0.88,0.72-0.11,0.2,3.1,2.67c1.96-0.69,2.96-2.2,3.94-3.6
					c1.3-1.86,3.13-3.01,4.99-4.02c1.08-0.59,2.58-0.5,3.89-0.56c4.36-0.19,7.87,1.42,10.47,5.01c2.24,3.1,2.4,6.49,1.49,9.98
					c-1.32,5.04-9.13,11.31-13.34,14.37c-1.14,0.83-2.18,1.69-2.97,2.92C168.53,69.14,167.5,70.01,166.75,70.83z M160.85,46.14
					c-1.33-1.09-2.64-2.08-3.84-3.2c-1.8-1.69-3.08-0.64-3.49,1.43c-0.49,2.46,0.4,4.75,1.27,6.98c0.62,1.59,1.26,3.29,2.34,4.56
					c2.68,3.16,5.73,5.93,9.4,8.02c1.9,1.09,3.44,0.93,5.03-0.35c8.05-6.48,16.8-13.17,11.18-21.77
					c-3.31-5.07-12.37-6.15-15.76-1.28C165.51,42.66,163.66,44.69,160.85,46.14z M150.54,59.43c9.49,7.94,11.98,10.77,15.29,9.79
					c0.84-0.72,1.79-1.35,1.24-2.85c-2.49-1.94-3.23-1.22-8.87-6.84c-0.76-0.75-1.62-1.41-2.41-2.12c-0.8-0.72-1.69-1.03-2.99-0.61
					C152.25,57.43,151.57,58.23,150.54,59.43z"/>
			</g>
			<path class="st2" d="M55.49,49.62c1.18-1.17,2.62-1.91,2.42-3.73c-1.78-2.26-4.4-3.95-4.56-7.2c-0.23-4.68,2.5-5.95,4.88-3.52
				c2.07,2.11,2.7,4.69,3.86,6.99c0.89-0.35,1.7-0.67,2.53-0.99c0.8,0.83,0.26,1.4-0.27,1.93c-5.86,5.72-3.66,3.2-6.78,7.46
				c0.59,0.69,0.95,1.26,1.44,1.68c2.42,2.11,2.93,4.86,2.83,7.88C61.39,74.2,44.02,77.49,38.32,65.8
				c-2.43-4.99,0.29-13.5,7.65-16.21c2.47-0.91,4.88-1.61,7.43-0.19C53.93,49.68,54.69,49.55,55.49,49.62z M54.19,51.6
				c-1.67-1-3.39-1.56-5.27-1.17c-3.22,0.68-5.79,2.36-7.75,5.05c-2.02,2.77-2.3,8.98-0.28,11.32c1.81,2.1,3.95,3.19,6.6,4.03
				c2.93,0.92,5.17,0.05,7.46-1.25c7.43-4.21,6.22-16.29,1.63-16.47c-0.63,0.56-1.19,1.06-1.99,1.76c-0.12-0.84-0.2-1.31-0.26-1.78
				C54.27,52.6,54.24,52.11,54.19,51.6z M56.19,35.77c-1.7,1.69-1.77,2.26-0.7,4.4c1.42,2.82,2.22,3.43,4.16,3.13
				C59.98,41.04,58.6,37.97,56.19,35.77z"/>
			<g>
				<path class="st2" d="M126.45,91.93c0-1.21,0-2.32,0-3.56c0.52-0.98,1.09-2.06,1.89-3.56c-1.03-0.74-2.02-1.46-3.01-2.17
					c0.7-1.2,1.43-1,2.06-0.58c8.13,5.41,7.16,4.58,7.16,9.82c3.46,0.73,5.58,2.73,6.33,6.18c0.74,3.38-0.8,6.13-2.24,8.88
					c1.23,5.02,2.45,9.99-2.75,13.63c-4.21,14.56-3.49,13.64-6.83,16.19c-1.65,0-3.39,0-5.04,0c-2.34-1.28-3.25-3.09-3.36-5.73
					c-0.17-4.21-0.82-8.4-1.31-13.01c-0.14-0.17-0.69-0.61-0.97-1.18c-0.54-1.09-1.37-2.29-1.29-3.39
					c0.68-8.67,2.78-5.49,2.61-11.15c-0.05-1.79,0.01-3.68,0.54-5.38C121.07,94.22,123.14,92.58,126.45,91.93z M122.88,104.73
					c3.39,0.56,7.05,1.16,10.71,1.77c2.01,0.33,3.61-0.07,4.39-2.22c0.58-1.6,1.25-3.17,1.92-4.86c-0.89-1.43-1.49-2.95-2.56-4.01
					c-3.38-3.35-10.46-3.37-14-0.22C120.66,97.58,120.33,102.04,122.88,104.73z M119.05,113.03c0.21,3.1,1.38,3.78,3.61,2.44
					c9.26-5.56,7.44-4.54,10.43-6.69c-2.21-1.17-4.18-1.6-5.49-0.87C124.65,109.56,121.79,111.38,119.05,113.03z M132.54,123.3
					c-3.27,2.1-6.34,3.99-9.32,6.01c-1.5,1.02-1.47,1.97-0.05,3.9c3.16-1.25,6.04-3.08,8.88-4.92
					C132.22,126.65,133.44,125.3,132.54,123.3z M136.54,109.14c-4.92,2.3-10.44,6.07-11.21,7.74c5.03,1.05,3.96,0.93,12.45-5.09
					C137.91,110.48,138.12,109.34,136.54,109.14z M122.54,127.56c3.32-2.18,6.33-4.13,9.28-6.15c0.31-0.21,0.34-0.82,0.49-1.24
					c-4.02-1.52-8.24,0.15-11.01,4.36C121.62,125.31,121.99,126.21,122.54,127.56z M131.79,87.55c-1.15,0.23-2.24,0.45-3.7,0.75
					c0.49,1.14,0.86,1.98,1.19,2.75c0.99,0,1.71,0,2.36,0C132.56,89.95,133.31,88.96,131.79,87.55z M121.32,106.07
					c-0.73,1.49-2.4,2.14-1.48,4.1c1.6-0.85,3.36-1.15,4.5-3.18C123.3,106.67,122.45,106.41,121.32,106.07z M125.61,134.24
					c0.07,0.26,0.14,0.52,0.22,0.78c0.95,0.05,1.9,0.1,2.71,0.15c1.76-1.71,1.76-1.71,0.96-3.25
					C128.19,132.69,126.9,133.46,125.61,134.24z M136.64,117.92c0.23-0.81,0.48-1.7,0.75-2.68c-2.14,0.25-2.3,0.36-3.81,2.44
					C134.46,118.7,135.45,118.34,136.64,117.92z M124.18,119.44c-1.13-0.89-1.91-1.07-2.58-0.39c-0.54,0.54-0.44,1.17,0.53,1.74
					C122.66,120.44,123.28,120.03,124.18,119.44z"/>
				<path class="st2" d="M124.08,99.25c-0.05,0.26-0.1,0.51-0.16,0.77c-0.09-0.01-0.18-0.02-0.28-0.03c0-0.26,0-0.53,0-0.79
					C123.79,99.21,123.94,99.23,124.08,99.25z"/>
				<path class="st2" d="M134.34,103.16c-0.06-0.03-0.16-0.04-0.17-0.09c-0.02-0.04,0.03-0.15,0.08-0.17
					c0.05-0.02,0.12,0.05,0.18,0.07C134.39,103.03,134.37,103.09,134.34,103.16z"/>
				<path class="st2" d="M129.88,103.07c-0.25,0.09-0.18,0.12-0.27-0.13c0.07-0.02,0.13-0.05,0.2-0.07
					C129.83,102.94,129.85,103,129.88,103.07z"/>
				<path class="st2" d="M136.13,99.13c0.12-0.24,0.05-0.21,0.28-0.11C136.3,99.26,136.37,99.24,136.13,99.13z"/>
				<path class="st2" d="M128.07,97.38c-0.12,0.05-0.23,0.1-0.35,0.15c-0.08-0.22-0.16-0.15,0.29-0.33
					C128.02,97.25,128.04,97.32,128.07,97.38z"/>
			</g>
			<g>
				<path class="st2" d="M89.9,95.56c3.93,0.58,4.03,3,7.04,11.87c0.6,0.19,1.27,0.5,1.97,0.59c10.65,1.32,14.48,0.33,12.74,10.6
					c-0.3,1.77-1.19,3.32-2.57,4.66c-1.41,1.36-0.81,5.64-0.99,10.19c-0.11,2.75-0.81,5.38-1.89,7.91c-0.71,1.65-1.88,2.38-3.72,2.3
					c-2.58-0.11-5.16,0.02-7.74-0.05c-1.06-0.03-2.12-0.32-3.18-0.5c-5.32-0.88-3.63-7.57-4.28-21.56
					c-0.26-0.29-0.35-0.46-0.48-0.53c-5.14-2.6-2.64-8.22-1.11-13.82c1.58-0.22,3.01-0.41,4.59-0.62c-0.51-3.31-2.74-5.85-2.78-9.17
					C88.34,96.77,89.17,96.12,89.9,95.56z M85.43,118.01c2.75,1.18,0.78,1.21,13.86,3.23c2.2,0.34,4.43,0.55,6.66,0.76
					c1.32,0.12,2.45-0.31,3.34-1.48c0.32-1.19,0.76-2.46,1-3.76c0.71-3.91-1.08-6.22-5.06-6.59c-0.74-0.07-1.5-0.01-2.24-0.04
					c-4.93-0.18-1.41,0.23-15.21-1.64C85.95,110.75,84.93,114.63,85.43,118.01z M89.36,127.78c0,2.67,0,4.96,0,7.02
					c1.68,1.37,3.3,1.76,5.13,1.7c5.12-0.16,5.63,0.15,11.16-0.18c0.79-2.56,1.63-4.9,0.7-7.37
					C100.73,127.39,95.15,127.37,89.36,127.78z M90.4,141.08c3.93,1.21,7.74,1.31,11.56,1.11c2.41-0.12,3.2-1.39,2.63-4.14
					c-4.49,0-9.04-0.03-13.59,0.04c-0.52,0.01-1.04,0.55-1.64,0.89C89.78,139.84,90.07,140.41,90.4,141.08z M105.06,126.78
					c1.08-0.66,1.97-1.31,1.15-2.99c-7.16-0.44-4.32-0.5-12.07-1.8c-1.61-0.27-3.24-0.74-5.03,0.22c0.08,1.17,0.17,2.35,0.25,3.52
					C94.77,126.43,99.98,125.24,105.06,126.78z M94.53,107.29c0.01-3.72-1.45-6.75-3.54-9.69c-0.69,0.22-1.19,0.39-1.76,0.57
					c1.02,2.88,1.95,5.6,2.97,8.29C92.53,107.31,93.22,107.78,94.53,107.29z"/>
				<path class="st2" d="M96.02,134.97c-3.21-2.42-1.71-6.2,2.32-5.81c0.88,0.08,1.72,0.54,2.58,0.8c1.8,0.54,2.35,2.43,0.9,3.63
					c-0.83,0.69-2,1.06-3.08,1.35C97.96,135.13,97.09,134.97,96.02,134.97z M99.64,131.9c0.03,0.15,0.06,0.3,0.09,0.44
					c0.34-0.06,0.68-0.12,1.01-0.19c-0.03-0.15-0.07-0.31-0.1-0.46C100.32,131.76,99.98,131.83,99.64,131.9z"/>
			</g>
			<path class="st2" d="M3.48,92.23c4.3-0.73,8.46-1.86,11.62,3.92c1.37,2.51,2.41,5.1,2.28,8.03c-0.09,2.03-0.58,3.93-1.8,5.58
				c-6.86,9.28-10.85,4.22-16.04,6.17c-1.95,0.73-4.19,0.73-6.19-0.62c-4.05-2.73-6.54-6.22-6.37-11.34
				c0.09-2.75,0.08-5.39,1.6-7.91c2.48-4.13,6.45-5.87,11.12-4.5c0.44,0.13,0.95,0.02,1.62,0.02c0-0.96,0-1.81,0-2.78
				c-4.07-0.39-8.7,0.47-10.38-5.01c1.54-2.12,3.54-3.29,6.15-3.67c2.86-0.41,4.37,2.05,6.51,2.96c1.67-0.65,2.21-2.65,3.9-2.97
				c0.76,0.9,0.18,1.37-0.25,1.86c-2.16,2.45-3.04,5.48-3.89,8.52C3.24,90.92,3.41,91.42,3.48,92.23z M1.73,113.1
				c0.82,0.29,1.51,0.69,2.23,0.74c1.47,0.09,3.11,0.41,4.39-0.11c3.17-1.27,5.55-3.58,6.67-6.9c0.44-1.3,1.07-2.85,0.73-4.04
				c-0.7-2.51-1.78-4.98-3.1-7.23c-0.86-1.47-2.45-2.29-4.41-2.34c-2.37-0.06-4.23,1.23-6.37,2.01c-1.23-0.81-4.42-3.27-5.84-2.78
				c-6.22,2.12-7.22,5.79-7.4,11.42c-0.15,4.61,2.22,7.64,5.74,10.06c1.56,1.07,3.22,1.24,4.95,0.33
				C0.12,113.83,0.95,113.47,1.73,113.1z M2.28,85.43c-3.3-4.5-6.96-4.86-9.1-0.98C-5.2,87-3.4,87.56,1.13,86.83
				C1.48,86.41,1.89,85.9,2.28,85.43z"/>
			<g>
				<path class="st2" d="M-4.98,50.16c-0.79-0.51-1.46-1-2.18-1.4c-2.59-1.43-3.85-3.53-3.57-6.54c0.21-2.28,1.52-3.63,3.84-3.75
					c0.66-0.04,1.33-0.01,2.15-0.01c0.67-0.55,1.44-1.16,2.21-1.79c1.8-0.37,3.23,0.68,4.68,1.36c7.58,3.52,7.43,2.44,19.68,7.53
					c0.96,0.4,1.72,1.25,2.53,1.86c0.11,1.15,0.21,2.13,0.32,3.23c0.76,0.56,1.56,1.14,2.34,1.71c1.29,2.29,0.35,4.15-1.33,5.56
					c-2.66,2.23-4.23,3.01-7.4,1.3c-0.94,0.56-2,1.19-2.84,1.69c-5.15,1.37-9.66-1.07-15-3.72C-2.5,55.73-5.03,53.93-4.98,50.16z
					 M-1.71,38.54c-1.68,2.57-1.71,2.63-1.74,4.98c-0.02,1.67,0.1,3.34-0.03,5c-0.23,3.15,1.23,5.33,3.89,6.65
					c3.05,1.51,6.14,2.99,9.36,4.08c2.2,0.75,4.67,0.79,6.56-1.08c6.01-5.95,7.25-7.75,6.17-10.41C14.78,44.25,6.3,41.95-1.71,38.54
					z M-5.43,40.41c-1.15-0.43-2.3-0.51-3.09,0.63c-0.88,1.27-0.73,2.7-0.11,4.01c0.64,1.36,1.61,1.79,3.09,1.63
					C-4.8,44.1-4.77,42.42-5.43,40.41z M24.31,52.83c-2.85,1.83-4,3.74-3.35,5.58c1.95,0.07,3.1-1.28,4.25-2.53
					C26.34,54.65,26.11,53.94,24.31,52.83z"/>
				<path class="st2" d="M11.64,28.23c0.09,1.42,0.09,1.42-1.53,3.34c-0.14,1.8,0.09,3.88-1.58,5.53c-0.34,0-0.79,0-1.26,0
					C8.1,32.01,7.77,29.38,11.64,28.23z"/>
				<path class="st2" d="M12.53,38.92c-0.08-0.59-0.23-1-0.16-1.36c0.41-2.16,0.61-4.42,1.42-6.42c0.51-1.25,1.97-2.1,3.06-3.19
					c0.98,0.86,0.87,1.6,0.17,2.06c-1.99,1.31-2.39,3.19-2.36,5.39C14.7,36.83,14.2,38.13,12.53,38.92z"/>
				<path class="st2" d="M17.4,34.71c0.86-0.55,1.77-1.13,2.71-1.73c1.04,1.91-0.81,2.13-1.23,3.14c-0.65,1,0.35,2.85-1.89,3.56
					C17.13,37.94,17.25,36.44,17.4,34.71z"/>
			</g>
			<g>
				<path class="st2" d="M17.47,175.52c-1.21,1.95-2.92,2.52-4.52,3.15c-3.72,1.46-7.19,3.97-11.98,2.75
					c-0.19-0.23-0.79-0.71-1.09-1.34c-6.18-12.76-5.61-12.13-8.16-16.76c-0.35-0.2-0.49-0.35-0.64-0.36
					c-3.05-0.27-4.19-2.14-5.01-4.94c-0.68-2.33-0.73-4.54-0.74-6.65c0.5-1.8,2.14-1.62,3.43-2.36c-0.93-2.95-4.14-4.01-5.4-6.73
					c0-0.78,0-1.69,0-2.83c0.76-0.48,1.57-0.99,2.26-1.42c3.35,1.21,3.96,1.76,9.46,8.47c4.08,0.53,7.47-2.57,11.53-2.83
					c1.27,0.37,2.54,0.74,4.25,1.24c1.68,3.36,3.77,6.86,2.11,11.19c-1.03,2.7,1.3,4.65,4.19,14.34
					C17.66,172.12,17.4,174.04,17.47,175.52z M4.13,165.37c-2.83,0.43-5.51,1.22-7.92,3.28c1.23,2.38,2.36,4.56,3.54,6.85
					c5.53-0.41,9.78-3.73,14.96-5.39c0.39-2.78-1.16-4.97-2.14-7.5c-3.06,0.49-5.9,1.21-8.47,2.78L4.13,165.37z M-11.15,160.71
					c3.76,0.99,6.73-0.27,9.76-1c3.44-0.83,8.73-2.24,11.92-3.77c1.51-0.72,2.01-2.11,1.53-3.57c-0.64-1.95-1.42-3.86-2.1-5.67
					c-1.12-0.48-2.03-0.86-2.99-1.27c-12.55,3.86-7.37,2.21-19.85,6.29C-13.36,155.08-12.16,157.94-11.15,160.71z M15.33,172.23
					c-2.71,0.29-4.93,1.54-7.26,2.56c-2.31,1.01-4.72,1.79-7.28,2.74c0.43,0.89,0.78,1.61,1.1,2.28c1.59,0.36,2.95,0.36,4.32-0.22
					C15.75,175.49,16.16,176.34,15.33,172.23z M11.07,158.85c-3.12,0-0.32-0.82-13.88,2.94c-1.08,0.3-2.11,0.76-3.18,1.15
					c0.27,1.01,0.46,1.72,0.68,2.54c0.56,0.14,1.19,0.52,1.64,0.37c4.92-1.62,9.82-3.33,14.73-5.02
					C11.07,160.12,11.07,159.64,11.07,158.85z M-15.08,140.76c0.25,0.68,0.29,1.22,0.58,1.54c6.33,6.99,5.14,5.58,7.11,6.35
					c0.63-2.79-1.35-3.98-2.59-5.25C-11.2,142.13-12.13,139.79-15.08,140.76z"/>
				<path class="st2" d="M4.1,165.39c1.79,0.18,3.57,0.35,5.51,0.54c0.33,0.73,0.66,1.46,0.93,2.06c-1.19,3.27-3.5,4.51-7.24,3.95
					c-1-1.55-0.89-3.19-0.13-4.85c0.27-0.6,0.63-1.15,0.95-1.73L4.1,165.39z M7.68,169.59c0.39-0.78,0.61-1.22,0.97-1.93
					C7.11,167.81,7.09,168.35,7.68,169.59z"/>
			</g>
			<path class="st2" d="M203.48,92.23c4.3-0.73,8.46-1.86,11.62,3.92c1.37,2.51,2.41,5.1,2.28,8.03c-0.09,2.03-0.58,3.93-1.8,5.58
				c-6.86,9.28-10.85,4.22-16.04,6.17c-1.95,0.73-4.19,0.73-6.19-0.62c-4.05-2.73-6.54-6.22-6.37-11.34
				c0.09-2.75,0.08-5.39,1.6-7.91c2.48-4.13,6.45-5.87,11.12-4.5c0.44,0.13,0.95,0.02,1.62,0.02c0-0.96,0-1.81,0-2.78
				c-4.07-0.39-8.7,0.47-10.38-5.01c1.54-2.12,3.54-3.29,6.15-3.67c2.86-0.41,4.37,2.05,6.51,2.96c1.67-0.65,2.21-2.65,3.9-2.97
				c0.76,0.9,0.18,1.37-0.25,1.86c-2.16,2.45-3.04,5.48-3.89,8.52C203.24,90.92,203.41,91.42,203.48,92.23z M201.73,113.1
				c0.82,0.29,1.51,0.69,2.23,0.74c1.47,0.09,3.11,0.41,4.39-0.11c3.17-1.27,5.55-3.58,6.67-6.9c0.44-1.3,1.07-2.85,0.73-4.04
				c-0.7-2.51-1.78-4.98-3.1-7.23c-0.86-1.47-2.45-2.29-4.41-2.34c-2.37-0.06-4.23,1.23-6.37,2.01c-1.23-0.81-4.42-3.27-5.84-2.78
				c-6.22,2.12-7.22,5.79-7.4,11.42c-0.15,4.61,2.22,7.64,5.74,10.06c1.56,1.07,3.22,1.24,4.95,0.33
				C200.12,113.83,200.95,113.47,201.73,113.1z M202.28,85.43c-3.3-4.5-6.96-4.86-9.1-0.98c1.62,2.56,3.42,3.12,7.95,2.39
				C201.48,86.41,201.89,85.9,202.28,85.43z"/>
			<g>
				<path class="st2" d="M195.02,50.16c-0.79-0.51-1.46-1-2.18-1.4c-2.59-1.43-3.85-3.53-3.57-6.54c0.21-2.28,1.52-3.63,3.84-3.75
					c0.66-0.04,1.33-0.01,2.15-0.01c0.67-0.55,1.44-1.16,2.21-1.79c1.8-0.37,3.23,0.68,4.68,1.36c7.58,3.52,7.43,2.44,19.68,7.53
					c0.96,0.4,1.72,1.25,2.53,1.86c0.11,1.15,0.21,2.13,0.32,3.23c0.76,0.56,1.56,1.14,2.34,1.71c1.29,2.29,0.35,4.15-1.33,5.56
					c-2.66,2.23-4.23,3.01-7.4,1.3c-0.94,0.56-2,1.19-2.84,1.69c-5.15,1.37-9.66-1.07-15-3.72
					C197.5,55.73,194.97,53.93,195.02,50.16z M198.29,38.54c-1.68,2.57-1.71,2.63-1.74,4.98c-0.02,1.67,0.1,3.34-0.03,5
					c-0.23,3.15,1.23,5.33,3.89,6.65c3.05,1.51,6.14,2.99,9.36,4.08c2.2,0.75,4.67,0.79,6.56-1.08c6.01-5.95,7.25-7.75,6.17-10.41
					C214.78,44.25,206.3,41.95,198.29,38.54z M194.57,40.41c-1.15-0.43-2.3-0.51-3.09,0.63c-0.88,1.27-0.73,2.7-0.11,4.01
					c0.64,1.36,1.61,1.79,3.09,1.63C195.2,44.1,195.23,42.42,194.57,40.41z M224.31,52.83c-2.85,1.83-4,3.74-3.35,5.58
					c1.95,0.07,3.1-1.28,4.25-2.53C226.34,54.65,226.11,53.94,224.31,52.83z"/>
				<path class="st2" d="M211.64,28.23c0.09,1.42,0.09,1.42-1.53,3.34c-0.14,1.8,0.09,3.88-1.58,5.53c-0.34,0-0.79,0-1.26,0
					C208.1,32.01,207.77,29.38,211.64,28.23z"/>
				<path class="st2" d="M212.53,38.92c-0.08-0.59-0.23-1-0.16-1.36c0.41-2.16,0.61-4.42,1.42-6.42c0.51-1.25,1.97-2.1,3.06-3.19
					c0.98,0.86,0.87,1.6,0.17,2.06c-1.99,1.31-2.39,3.19-2.36,5.39C214.7,36.83,214.2,38.13,212.53,38.92z"/>
				<path class="st2" d="M217.4,34.71c0.86-0.55,1.77-1.13,2.71-1.73c1.04,1.91-0.81,2.13-1.23,3.14c-0.65,1,0.35,2.85-1.89,3.56
					C217.13,37.94,217.25,36.44,217.4,34.71z"/>
			</g>
			<g>
				<path class="st2" d="M217.47,175.52c-1.21,1.95-2.92,2.52-4.52,3.15c-3.72,1.46-7.19,3.97-11.98,2.75
					c-0.19-0.23-0.79-0.71-1.09-1.34c-6.18-12.76-5.61-12.13-8.16-16.76c-0.35-0.2-0.49-0.35-0.64-0.36
					c-3.05-0.27-4.19-2.14-5.01-4.94c-0.68-2.33-0.73-4.54-0.74-6.65c0.5-1.8,2.14-1.62,3.43-2.36c-0.93-2.95-4.14-4.01-5.4-6.73
					c0-0.78,0-1.69,0-2.83c0.76-0.48,1.57-0.99,2.26-1.42c3.35,1.21,3.96,1.76,9.46,8.47c4.08,0.53,7.47-2.57,11.53-2.83
					c1.27,0.37,2.54,0.74,4.25,1.24c1.68,3.36,3.77,6.86,2.11,11.19c-1.03,2.7,1.3,4.65,4.19,14.34
					C217.66,172.12,217.4,174.04,217.47,175.52z M204.13,165.37c-2.83,0.43-5.51,1.22-7.92,3.28c1.23,2.38,2.36,4.56,3.54,6.85
					c5.53-0.41,9.78-3.73,14.96-5.39c0.39-2.78-1.16-4.97-2.14-7.5c-3.06,0.49-5.9,1.21-8.47,2.78L204.13,165.37z M188.85,160.71
					c3.76,0.99,6.73-0.27,9.76-1c3.44-0.83,8.73-2.24,11.92-3.77c1.51-0.72,2.01-2.11,1.53-3.57c-0.64-1.95-1.42-3.86-2.1-5.67
					c-1.12-0.48-2.03-0.86-2.99-1.27c-12.55,3.86-7.37,2.21-19.85,6.29C186.64,155.08,187.84,157.94,188.85,160.71z M215.33,172.23
					c-2.71,0.29-4.93,1.54-7.26,2.56c-2.31,1.01-4.72,1.79-7.28,2.74c0.43,0.89,0.78,1.61,1.1,2.28c1.59,0.36,2.95,0.36,4.32-0.22
					C215.75,175.49,216.16,176.34,215.33,172.23z M211.07,158.85c-3.12,0-0.32-0.82-13.88,2.94c-1.08,0.3-2.11,0.76-3.18,1.15
					c0.27,1.01,0.46,1.72,0.68,2.54c0.56,0.14,1.19,0.52,1.64,0.37c4.92-1.62,9.82-3.33,14.73-5.02
					C211.07,160.12,211.07,159.64,211.07,158.85z M184.92,140.76c0.25,0.68,0.29,1.22,0.58,1.54c6.33,6.99,5.14,5.58,7.11,6.35
					c0.63-2.79-1.35-3.98-2.59-5.25C188.8,142.13,187.87,139.79,184.92,140.76z"/>
				<path class="st2" d="M204.1,165.39c1.79,0.18,3.57,0.35,5.51,0.54c0.33,0.73,0.66,1.46,0.93,2.06c-1.19,3.27-3.5,4.51-7.24,3.95
					c-1-1.55-0.89-3.19-0.13-4.85c0.27-0.6,0.63-1.15,0.95-1.73L204.1,165.39z M207.68,169.59c0.39-0.78,0.61-1.22,0.97-1.93
					C207.11,167.81,207.09,168.35,207.68,169.59z"/>
			</g>
			<g>
				<path class="st2" d="M74.09,64.89c-1.46-0.8-2.61-1.43-4.04-2.21c2.06-3.39,5.68-4.18,8.12-5.99c2.3-5.92,2.93-10.07,7.46-9.12
					c0.98,1.93-0.53,4.3,1.07,6.51c3.99,0,7.35-0.47,9.08,2.99c1.08,2.17,6.44,1.75,7.82,11.5c0.54,3.8,0.67,7.6,1.09,11.39
					c0.38,3.41,0.11,6.81-1.37,9.97c-1.29,2.76-3.33,3.57-6.16,2.49c-7.73-2.95-18.7-9.46-21.05-17.02
					c-0.32-1.01-0.95-1.93-1.32-2.93C73.84,69.77,74.09,68.92,74.09,64.89z M80.43,67.32c-2.77,5.54-3.1,5.83-2.7,6.88
					c2.17,5.78,4.18,7.83,12.59,13.06c2.76,1.72,5.89,2.84,8.59,4.1c2.79-1.38,3.82-2.88,3.85-5.44
					c0.19-17.99-0.51-12.68-0.96-18.02c-0.26-3.1-1.72-5.57-4.17-7.27c-4.98-3.45-3.38,0.62-8.89,0.8
					c-2.88,0.09-2.65,1.78-2.98,5.62C84.07,67.13,82.53,67.21,80.43,67.32z M83.53,65.49c1.92-1.43,0.44-3.8,1.88-5.61
					c2.63,0.02,5.64,0.23,7.58-2.69c-1.06-2.18-3.12-1.51-6.71-1.73c-1.93-0.12-2.42-0.7-2.51-2.65c-0.04-0.85,0.38-1.78-0.41-2.71
					c-2.42,1.86-2.37,4.68-3.22,7.17c-1.77,1.92-4.9,2.23-6.39,4.7c1.01,0.78,1.84,1.41,2.51,1.92c0.47,2.19-1.68,4.14,0.04,6.18
					c1.88-1.32,2.33-3.24,2.73-5.05C80.71,63.85,81.91,65.72,83.53,65.49z"/>
				<path class="st2" d="M93.5,65.1c-1.11,0.37-1.34-0.61-1.93-1.26c0.27-0.32,0.53-0.62,0.74-0.87
					C93.24,62.95,93.63,63.72,93.5,65.1z"/>
				<path class="st2" d="M98.25,77.63c-1.15-1.22-1.46-2.19-0.37-3.55C98.67,75.23,99.15,76.16,98.25,77.63z"/>
				<path class="st2" d="M87.69,72.91c-0.87-0.69-1.4-1.11-1.98-1.57C87.35,70.36,87.63,70.54,87.69,72.91z"/>
				<path class="st2" d="M97.55,81.25c0.65,1.83,0.46,2-1.61,1.69C95.86,81.89,96.62,81.64,97.55,81.25z"/>
				<path class="st2" d="M92.97,70.02c2.32-0.39,2.39-0.32,1.79,1.66C94.2,71.17,93.75,70.75,92.97,70.02z"/>
				<path class="st2" d="M88.37,66.8c0.47-0.35,0.78-0.59,1.17-0.88c0.41,0.35,0.76,0.65,1.15,0.98
					C89.96,67.96,89.3,67.63,88.37,66.8z"/>
				<path class="st2" d="M89.31,78.72c-0.33-0.31-0.65-0.62-1.09-1.03C89.51,77.36,89.51,77.36,89.31,78.72z"/>
				<path class="st2" d="M93.66,76.87c-0.54-0.63-0.8-0.92-1.29-1.48c0.76-0.06,1.23-0.1,1.98-0.16
					C94.1,75.84,93.96,76.18,93.66,76.87z"/>
				<path class="st2" d="M82.57,72.58c1.41,0.63,1.4,1.18,0.13,1.86C82.65,73.7,82.61,73.14,82.57,72.58z"/>
			</g>
			<g>
				<path class="st2" d="M134.32,162c0,0.39,0,0.78,0,1.17c-0.18,0.02-0.37,0.04-0.55,0.05c-0.05-0.41-0.1-0.82-0.14-1.23
					C133.85,162,134.09,162,134.32,162z"/>
				<path class="st2" d="M138.25,156.4c0.35-0.33,0.6-0.57,0.9-0.85C139.39,156.53,139.39,156.53,138.25,156.4z"/>
				<path class="st2" d="M137.49,151.24c0.33,0.09,0.67,0.18,1,0.28c-0.03,0.14-0.05,0.28-0.08,0.42c-0.35-0.04-0.7-0.07-1.05-0.11
					C137.4,151.63,137.45,151.44,137.49,151.24z"/>
				<path class="st2" d="M138.32,162.71c0.3,0.04,0.6,0.09,0.91,0.13c-0.01,0.13-0.01,0.25-0.02,0.38
					c-0.31,0.02-0.62,0.04-0.93,0.06C138.3,163.09,138.31,162.9,138.32,162.71z"/>
				<path class="st2" d="M135.22,159.87c-0.15-0.23-0.3-0.46-0.45-0.69c0.09-0.08,0.17-0.16,0.26-0.23
					c0.21,0.21,0.41,0.41,0.62,0.62C135.5,159.66,135.36,159.76,135.22,159.87z"/>
				<path class="st2" d="M133.92,154.74c-0.19-0.25-0.37-0.51-0.56-0.76c0.09-0.09,0.19-0.17,0.28-0.26
					c0.23,0.2,0.46,0.39,0.68,0.59C134.2,154.45,134.06,154.59,133.92,154.74z"/>
				<g>
					<path class="st2" d="M147.08,146.58c0.76-1.25,1.38-2.29,1.85-3.06c-3.52-4.9-6.94-7.93-3.29-12.12
						c1.55-0.57,2.86-0.29,3.73,1.11c1.26,2.01,1.55,2.82,3.81,6.62c1-0.39,1.82-0.7,2.72-1.05c0.63,1.89-0.68,1.56-6.04,7.68
						c-0.53,0.61-0.69,1.54-0.97,2.2c1.5,1.89,3.03,3.26,3.65,5.36c1.49,5.03-0.46,10.15-4.21,13.63
						c-8.86,8.22-26.31-2.03-17.43-15.64c2.61-4,8.39-6.68,12.75-5.17C144.68,146.5,145.87,146.44,147.08,146.58z M145.05,148.12
						c-1.8-0.32-3.44-1.08-4.84-0.76c-2.04,0.46-4.05,1.48-5.83,2.64c-3.2,2.08-4.95,7.81-4.16,10.63
						c2.34,8.39,16.11,12.14,20.79-1.16c1.04-2.96,0.05-7.9-3.43-9.43c-0.68,0.61-1.37,1.23-2.53,2.28
						C145.05,150.57,145.05,149.42,145.05,148.12z M146.78,132.83c-1.72,3.13-0.2,6.65,3.18,7.75
						C151.19,138.17,149.95,135.04,146.78,132.83z"/>
					<path class="st2" d="M142.2,151.96c-0.08-0.1-0.17-0.2-0.23-0.32c-0.02-0.03,0.1-0.18,0.12-0.17c0.12,0.04,0.24,0.1,0.36,0.16
						C142.36,151.74,142.28,151.85,142.2,151.96z"/>
				</g>
			</g>
			<g>
				<path class="st2" d="M157.89,128.52c-6.9-4.54-8.29-13,2.29-19.38c-0.06-0.93-0.06-1.99-0.22-3.03
					c-0.74-4.77,2.3-9.02,6.95-10.76c3.69-1.39,6.65-0.69,9.38,1.72c2.83,2.49,3.34,5.66,2.05,9.26c-0.98,2.75-2.41,5.04-5.18,6.52
					c0.16,0.58,0.26,1.13,0.47,1.63c2.52,6.18-0.72,15.56-12.69,14.47C159.94,128.87,158.96,128.68,157.89,128.52z M162.75,127.65
					c3-0.77,5.24-0.5,8.65-4.44c2.3-2.65,2.57-11.41-6.17-13.54c-3.49,0.99-2.37,0.46-5.98,2.33c-7.66,3.97-5.42,14.11,1.01,15.04
					C161.07,127.16,161.86,127.43,162.75,127.65z M171.89,111.2c0.78-0.46,1.48-0.74,2.01-1.22c7.59-6.83,1.05-16.11-6.56-13.05
					c-4.43,1.78-7.16,5.89-5.16,10.99C165.6,108.03,169.21,108.16,171.89,111.2z"/>
				<path class="st2" d="M160.83,118.81c0.1,1.91,0.17,3.09,0.25,4.59c-0.73,0.08-1.48,0.16-2.45,0.27
					c-0.16-0.98-0.29-1.76-0.44-2.69C158.96,120.35,159.68,119.76,160.83,118.81z"/>
				<path class="st2" d="M173.82,106.32c-1.25-0.3-2.42-0.59-3.77-0.91c0.6-1.33,1.18-2.62,1.92-4.26c0.74,0.06,1.72,0.13,2.74,0.21
					C174.37,103.2,174.1,104.74,173.82,106.32z"/>
			</g>
			<g>
				<path class="st2" d="M76.77-34.52c0.69,1.92,1.32,3.7,2.02,5.65c-0.81,1.33-1.62,2.66-2.54,4.17c-0.63,3.71-1.3,7.68-1.97,11.64
					c1.29,2.1,3.55,1.36,5.4,1.95c1.36-1.54,1.88-3.01,1.03-5.04c-0.54-1.3-0.38-2.89-0.52-4.14c1.6-1.75,3.06-2.64,5.1-1.44
					c0.35,0.73,0.7,1.47,1.05,2.19c-0.27,1.58-1.11,2.71-2.09,3.91c-1.06,1.3-1.63,3-2.51,4.7c2.43,2.21,1.57,1.31,3.67,3.7
					c0.41,3.06,0.37,5.93-1.05,8.71c0.71,0.79,1.31,1.45,1.94,2.15c0.98,3.91-0.42,6.89-1.9,12.83c1.21,1.65,2.12,2.9,3.05,4.18
					c-1,4.13-1.96,8.12-2.88,11.93c-3.29,1.47-4.87,0.4-15.1-2.29c-9.73-2.57-5.2-0.9-23.93-7.09c-4.1-1.35-6.86-2.25-6.79-6.28
					c0.06-3.59,1.91-8.77,5.43-9.8c1.91-0.55,2.66-1.82,3.19-3.47c0.4-1.26,0.9-2.5,1.28-3.77c0.8-2.68,2.34-4.55,5.23-5.06
					c0.4-0.07,0.78-0.28,1.45-0.52c3.64-9.45,3.73-9.22,8.79-9.59c1.84-1.09,1.91-2.7,1.61-4.52c-0.97-1.32-2.43-2.54-1.59-4.86
					c1.08-1.24,2.2-2.95,4.89-2.73c0.6,1.25,1.23,2.57,1.96,4.11c-0.62,0.88-1.13,1.84-1.86,2.57c-1.71,1.72-1.87,3.76-1.71,6.23
					c1.52,0.45,2.97,0.89,4.47,1.33c2.09-3.8,1.22-7.83,2.65-11.07C70.55-29.75,71.31-32.73,76.77-34.52z M79.15,23.76
					c-3.09,1.82-5.68,0.86-7.95-1.81c-1.09-1.29-2.64-1.43-4.13-0.81c-3.45,1.44-5.66-1.29-8.6-4.1c-1.87,0.42-3.61,0.81-5.43,1.22
					c-1.63-1.36-3.14-2.62-4.68-3.9c-2.46,0.41-4.98,0.82-7.66,1.26c0,1,0,2.05,0,3.34c2.57,1.71,1.47,1.7,18.55,6.99
					c4.91,1.52,11.87,3.21,17.12,4.5c2.05,0.5,4.08,1.21,6.25,1.21c0.73-1.59,1.7-2.91,1.2-4.24
					C82.12,26.09,80.71,24.98,79.15,23.76z M42.85,13.48c0.99-0.12,1.97,0,2.69-0.38c3.4-1.79,5.01,0.45,7.86,3.15
					c2.07-0.35,3.84-0.65,5.55-0.94c3.6,3.16,4.88,4.68,7.23,4.26c7.94-1.43,6.74,4.92,10.8,3.11c2.13-0.95,3.86-0.47,5.25,1.42
					c0.6,0.82,1.41,1.14,2.49,0.41c0.13-1.69,1.02-3.46-0.17-5.08c-15.52-5.07-12.43-3.87-17.36-5.48
					C54.36,9.74,50.53,7.81,46.26,8.29C43.35,8.61,42.29,9.96,42.85,13.48z M50.37,1.7c-1.52,1.75-1.64,2.33-1.07,4.7
					c1.24,0.71,5.58,1.68,14.18,4.39c4.56,1.44,9.03,3.16,13.62,4.45c1.64,0.46,3.23,1.95,5.35,0.85c0.76-1.6,1.17-3.37,1.33-5.41
					c-1.56-0.25-2.86-0.46-4.06-0.65c-0.27-0.24-0.51-0.37-0.64-0.57c-1.22-1.82-2.71-2.28-4.92-1.65c-3.59,1.02-5.66-2.14-7.5-4.28
					c-1.31,0.35-2.63,0.71-4.12,1.11c-1.35-0.92-2.77-1.89-4.3-2.93C55.74,1.7,53.09,1.7,50.37,1.7z M67.12,1.89
					c0.91,0.87,1.82,1.58,2.55,2.45c1.05,1.26,2.29,1.79,3.93,1.69c1.64-0.11,3.29-0.02,4.67-0.02c3.28,3.28,3.75,3.42,6.42,1.97
					c0.22-1.47,0.7-3.04-0.59-3.89C61.69-2.14,61.11-4.45,53.77-3.34c-1.82,0.27-2.51,1.21-2.22,3.3c1.49,0,3.05,0.09,4.59-0.02
					c1.73-0.13,3.27,0.03,4.62,1.32c0.63,0.61,1.53,0.93,1.93,1.16C64.36,2.22,65.58,2.07,67.12,1.89z M83.45-1.37
					c-1.79-3.39-4.2-0.3-7.63-3.26c-0.56-0.48-1.21-0.86-1.95-1.38c-1.56,0-3.21,0-5.17,0c-2.65-3.3-1.94-2.81-10.63-2.81
					c-0.11,1.17-0.2,2.09-0.3,3.12c4.24,1.28,8.3,2.36,12.25,3.75c4.05,1.42,8.06,2.92,12.58,3.48C82.92,0.45,83.21-0.55,83.45-1.37
					z M61.99-9.91c3.36-1.48,5.88-0.25,7.88,2.41c1.95,0,3.77,0,5.74,0c1.96,3,4.9,3.3,8.08,2.87c0.64-0.97,0.46-1.86-0.38-2.45
					c-3.65-2.58-4.99-1.92-8.68-3.1c-3.36-1.07-6.66-2.37-10.02-3.42c-2.31-0.72-3.94,0.28-4.76,2.65c0.18,0.14,0.35,0.33,0.56,0.43
					C60.85-10.31,61.33-10.15,61.99-9.91z M76.05-31.58c-2.17,0.46-2.38,1-1.61,3.87c1.54,0.65,2.03-0.31,2.37-1.58
					C76.56-30.05,76.3-30.82,76.05-31.58z M67.77-25.42c-0.73,0.5-1.48,1.01-2.48,1.7c0.68,0.92,1.2,1.62,1.72,2.33
					C69.19-23.02,69.27-23.44,67.77-25.42z M83.47-20.32c-1.97,1.19-2.02,1.39-0.99,3.14C84.48-17.85,84.67-18.38,83.47-20.32z"/>
				<g>
					<path class="st2" d="M27.62,0.17c1.07,7.23-15.2,28.3-31.75,19.7c-4.26-2.21-7.28-5.31-9.49-9.42
						c-0.75-1.39-0.85-2.72,0.21-3.92c3.31-3.72,0.64-1.85,23.51-17.34c2.12-1.43,4.34-2.72,6.48-4.13
						c1.07-0.71,1.93-0.49,2.96,0.16C23.95-12,27.6-5.49,27.62,0.17z M-9.37,5.3c2.72,4.55,1.11,1.83,4.58,6.2
						c6.48,8.18,17.39,1.98,24.12-6c2.44-2.9,2.86-6.26,1.06-9.73c-1.48-2.87-4.04-4.75-6.17-6.91C11.47-10.03-7.21,2.97-9.37,5.3z
						 M16.33-12.3c3.36,4.58,9.4,8.81,5.77,16.58c-1.97,4.22-5.66,6.84-9.33,9.44c-1.97,1.39-4.15,2.77-6.47,2.85
						c-10.37,0.37-7.77,1.23-17.01-9.44c-1.77,0.89-1.94,1.22-1.29,2.66c2.47,5.5,7.12,8.61,12.6,10.07
						c9.56,2.55,19.42-6.08,24.05-14.55c1.06-1.95,1.84-4.18,1.47-6.45c-0.79-4.74-3.23-8.6-6.9-11.67
						C18.29-13.58,17.27-13.8,16.33-12.3z"/>
					<path class="st2" d="M10.4,3.12c0.83,0.83,1.33,1.33,1.95,1.96C10.29,5.56,10,5.32,10.4,3.12z"/>
					<path class="st2" d="M10.98-5.45c-0.02-1.72,0.91-1.63,2.11-1.43C12.91-5.68,12.41-5.14,10.98-5.45z"/>
					<path class="st2" d="M-2.13,4.83C-1.92,4.27-1.71,3.71-1.46,3C-0.5,3.95-0.5,3.95-1.54,5.03C-1.74,4.96-1.93,4.9-2.13,4.83z"/>
					<path class="st2" d="M3.35,8.32c0.06-0.55,0.12-1.09,0.22-1.98C4.66,7.25,4.66,7.82,3.35,8.32z"/>
					<path class="st2" d="M15.29-1.07c-0.43,0-0.85,0-1.28,0c0-0.18,0-0.35-0.01-0.53c0.43,0,0.85,0,1.28,0
						C15.29-1.43,15.29-1.25,15.29-1.07z"/>
				</g>
				<g>
					<path class="st2" d="M227.62,0.17c1.07,7.23-15.2,28.3-31.75,19.7c-4.26-2.21-7.28-5.31-9.49-9.42
						c-0.75-1.39-0.85-2.72,0.21-3.92c3.31-3.72,0.64-1.85,23.51-17.34c2.12-1.43,4.34-2.72,6.48-4.13
						c1.07-0.71,1.93-0.49,2.96,0.16C223.95-12,227.6-5.49,227.62,0.17z M190.63,5.3c2.72,4.55,1.11,1.83,4.58,6.2
						c6.48,8.18,17.39,1.98,24.12-6c2.44-2.9,2.86-6.26,1.06-9.73c-1.48-2.87-4.04-4.75-6.17-6.91
						C211.47-10.03,192.79,2.97,190.63,5.3z M216.33-12.3c3.36,4.58,9.4,8.81,5.77,16.58c-1.97,4.22-5.66,6.84-9.33,9.44
						c-1.97,1.39-4.15,2.77-6.47,2.85c-10.37,0.37-7.77,1.23-17.01-9.44c-1.77,0.89-1.94,1.22-1.29,2.66
						c2.47,5.5,7.12,8.61,12.6,10.07c9.56,2.55,19.42-6.08,24.05-14.55c1.06-1.95,1.84-4.18,1.47-6.45
						c-0.79-4.74-3.23-8.6-6.9-11.67C218.29-13.58,217.27-13.8,216.33-12.3z"/>
					<path class="st2" d="M210.4,3.12c0.83,0.83,1.33,1.33,1.95,1.96C210.29,5.56,210,5.32,210.4,3.12z"/>
					<path class="st2" d="M210.98-5.45c-0.02-1.72,0.91-1.63,2.11-1.43C212.91-5.68,212.41-5.14,210.98-5.45z"/>
					<path class="st2" d="M197.87,4.83c0.21-0.56,0.41-1.13,0.67-1.83c0.95,0.95,0.95,0.95-0.09,2.03
						C198.26,4.96,198.07,4.9,197.87,4.83z"/>
					<path class="st2" d="M203.35,8.32c0.06-0.55,0.12-1.09,0.22-1.98C204.66,7.25,204.66,7.82,203.35,8.32z"/>
					<path class="st2" d="M215.29-1.07c-0.43,0-0.85,0-1.28,0c0-0.18,0-0.35-0.01-0.53c0.43,0,0.85,0,1.28,0
						C215.29-1.43,215.29-1.25,215.29-1.07z"/>
				</g>
				<path class="st2" d="M158.8-5c2.44-1.67,4.71-3.14,7.51-2.88c5.48,0.51,10.64,5.31,10.17,10.29c-0.32,3.43-1.81,6.01-5.27,7.46
					c-3.48,1.46-6.62,0.96-9.74-0.68c-1.3-0.68-2.2-0.6-3.34,0.38c-4.67,4.02-12.05,3.09-15.43-2.04c-1.16-1.76-1.9-3.86-2.54-5.89
					c-1.42-4.52,3.81-10.83,8.52-10.64c3.22,0.13,6.02,0.66,8.39,2.91C157.54-5.65,158.18-5.39,158.8-5z M149.9-7.29
					c-8.91-0.03-11.08,9.95-3.54,16.15c1.7,1.4,3.86,1.73,6.09,1.43c3.67-0.49,5.73-2.76,7.33-5.92c0.92-1.82,0.92-3.34-0.15-4.84
					c-1.14-1.6-2.45-3.1-3.84-4.49C154.14-6.61,152.11-7.5,149.9-7.29z M161.29,6.56c2.94,3,8.23,3.4,11.05,0.78
					c4.6-4.26,2.41-9.68-2.74-12.46c-3.79-2.04-7.78-0.64-9.1,1.89c0.6,1.69,1.52,3.28,1.65,4.94
					C162.27,3.35,161.59,5.04,161.29,6.56z"/>
			</g>
			<g>
				<path class="st2" d="M76.77,165.48c0.69,1.92,1.32,3.7,2.02,5.65c-0.81,1.33-1.62,2.66-2.54,4.17
					c-0.63,3.71-1.3,7.68-1.97,11.64c1.29,2.1,3.55,1.36,5.4,1.95c1.36-1.54,1.88-3.01,1.03-5.04c-0.54-1.3-0.38-2.89-0.52-4.14
					c1.6-1.75,3.06-2.64,5.1-1.44c0.35,0.73,0.7,1.47,1.05,2.19c-0.27,1.58-1.11,2.71-2.09,3.91c-1.06,1.3-1.63,3-2.51,4.7
					c2.43,2.21,1.57,1.31,3.67,3.7c0.41,3.06,0.37,5.93-1.05,8.71c0.71,0.79,1.31,1.45,1.94,2.15c0.98,3.91-0.42,6.89-1.9,12.83
					c1.21,1.65,2.12,2.9,3.05,4.18c-1,4.13-1.96,8.12-2.88,11.93c-3.29,1.47-4.87,0.4-15.1-2.29c-9.73-2.57-5.2-0.9-23.93-7.09
					c-4.1-1.35-6.86-2.25-6.79-6.28c0.06-3.59,1.91-8.77,5.43-9.8c1.91-0.55,2.66-1.82,3.19-3.47c0.4-1.26,0.9-2.5,1.28-3.77
					c0.8-2.68,2.34-4.55,5.23-5.06c0.4-0.07,0.78-0.28,1.45-0.52c3.64-9.45,3.73-9.22,8.79-9.59c1.84-1.09,1.91-2.7,1.61-4.52
					c-0.97-1.32-2.43-2.54-1.59-4.86c1.08-1.24,2.2-2.95,4.89-2.73c0.6,1.25,1.23,2.57,1.96,4.11c-0.62,0.88-1.13,1.84-1.86,2.57
					c-1.71,1.72-1.87,3.76-1.71,6.23c1.52,0.45,2.97,0.89,4.47,1.33c2.09-3.8,1.22-7.83,2.65-11.07
					C70.55,170.25,71.31,167.27,76.77,165.48z M79.15,223.76c-3.09,1.82-5.68,0.86-7.95-1.81c-1.09-1.29-2.64-1.43-4.13-0.81
					c-3.45,1.44-5.66-1.29-8.6-4.1c-1.87,0.42-3.61,0.81-5.43,1.22c-1.63-1.36-3.14-2.62-4.68-3.9c-2.46,0.41-4.98,0.82-7.66,1.26
					c0,1,0,2.05,0,3.34c2.57,1.71,1.47,1.7,18.55,6.99c4.91,1.52,11.87,3.21,17.12,4.5c2.05,0.5,4.08,1.21,6.25,1.21
					c0.73-1.59,1.7-2.91,1.2-4.24C82.12,226.09,80.71,224.98,79.15,223.76z M42.85,213.48c0.99-0.12,1.97,0,2.69-0.38
					c3.4-1.79,5.01,0.45,7.86,3.15c2.07-0.35,3.84-0.65,5.55-0.94c3.6,3.16,4.88,4.68,7.23,4.26c7.94-1.43,6.74,4.92,10.8,3.11
					c2.13-0.95,3.86-0.47,5.25,1.42c0.6,0.82,1.41,1.14,2.49,0.41c0.13-1.69,1.02-3.46-0.17-5.08c-15.52-5.07-12.43-3.87-17.36-5.48
					c-12.84-4.21-16.67-6.14-20.93-5.66C43.35,208.61,42.29,209.96,42.85,213.48z M50.37,201.7c-1.52,1.75-1.64,2.33-1.07,4.7
					c1.24,0.71,5.58,1.68,14.18,4.39c4.56,1.44,9.03,3.16,13.62,4.45c1.64,0.46,3.23,1.95,5.35,0.85c0.76-1.6,1.17-3.37,1.33-5.41
					c-1.56-0.25-2.86-0.46-4.06-0.65c-0.27-0.24-0.51-0.37-0.64-0.57c-1.22-1.82-2.71-2.28-4.92-1.65c-3.59,1.02-5.66-2.14-7.5-4.28
					c-1.31,0.35-2.63,0.71-4.12,1.11c-1.35-0.92-2.77-1.89-4.3-2.93C55.74,201.7,53.09,201.7,50.37,201.7z M67.12,201.89
					c0.91,0.87,1.82,1.58,2.55,2.45c1.05,1.26,2.29,1.79,3.93,1.69c1.64-0.11,3.29-0.02,4.67-0.02c3.28,3.28,3.75,3.42,6.42,1.97
					c0.22-1.47,0.7-3.04-0.59-3.89c-22.41-6.23-22.99-8.54-30.33-7.43c-1.82,0.27-2.51,1.21-2.22,3.3c1.49,0,3.05,0.09,4.59-0.02
					c1.73-0.13,3.27,0.03,4.62,1.32c0.63,0.61,1.53,0.93,1.93,1.16C64.36,202.22,65.58,202.07,67.12,201.89z M83.45,198.63
					c-1.79-3.39-4.2-0.3-7.63-3.26c-0.56-0.48-1.21-0.86-1.95-1.38c-1.56,0-3.21,0-5.17,0c-2.65-3.3-1.94-2.81-10.63-2.81
					c-0.11,1.17-0.2,2.09-0.3,3.12c4.24,1.28,8.3,2.36,12.25,3.75c4.05,1.42,8.06,2.92,12.58,3.48
					C82.92,200.45,83.21,199.45,83.45,198.63z M61.99,190.09c3.36-1.48,5.88-0.25,7.88,2.41c1.95,0,3.77,0,5.74,0
					c1.96,3,4.9,3.3,8.08,2.87c0.64-0.97,0.46-1.86-0.38-2.45c-3.65-2.58-4.99-1.92-8.68-3.1c-3.36-1.07-6.66-2.37-10.02-3.42
					c-2.31-0.72-3.94,0.28-4.76,2.65c0.18,0.14,0.35,0.33,0.56,0.43C60.85,189.69,61.33,189.85,61.99,190.09z M76.05,168.42
					c-2.17,0.46-2.38,1-1.61,3.87c1.54,0.65,2.03-0.31,2.37-1.58C76.56,169.95,76.3,169.18,76.05,168.42z M67.77,174.58
					c-0.73,0.5-1.48,1.01-2.48,1.7c0.68,0.92,1.2,1.62,1.72,2.33C69.19,176.98,69.27,176.56,67.77,174.58z M83.47,179.68
					c-1.97,1.19-2.02,1.39-0.99,3.14C84.48,182.15,84.67,181.62,83.47,179.68z"/>
				<g>
					<path class="st2" d="M27.62,200.17c1.07,7.23-15.2,28.3-31.75,19.7c-4.26-2.21-7.28-5.31-9.49-9.42
						c-0.75-1.39-0.85-2.72,0.21-3.92c3.31-3.72,0.64-1.85,23.51-17.34c2.12-1.43,4.34-2.72,6.48-4.13
						c1.07-0.71,1.93-0.49,2.96,0.16C23.95,188,27.6,194.51,27.62,200.17z M-9.37,205.3c2.72,4.55,1.11,1.83,4.58,6.2
						c6.48,8.18,17.39,1.98,24.12-6c2.44-2.9,2.86-6.26,1.06-9.73c-1.48-2.87-4.04-4.75-6.17-6.91
						C11.47,189.97-7.21,202.97-9.37,205.3z M16.33,187.7c3.36,4.58,9.4,8.81,5.77,16.58c-1.97,4.22-5.66,6.84-9.33,9.44
						c-1.97,1.39-4.15,2.77-6.47,2.85c-10.37,0.37-7.77,1.23-17.01-9.44c-1.77,0.89-1.94,1.22-1.29,2.66
						c2.47,5.5,7.12,8.61,12.6,10.07c9.56,2.55,19.42-6.08,24.05-14.55c1.06-1.95,1.84-4.18,1.47-6.45
						c-0.79-4.74-3.23-8.6-6.9-11.67C18.29,186.42,17.27,186.2,16.33,187.7z"/>
					<path class="st2" d="M10.4,203.12c0.83,0.83,1.33,1.33,1.95,1.96C10.29,205.56,10,205.32,10.4,203.12z"/>
					<path class="st2" d="M10.98,194.55c-0.02-1.72,0.91-1.63,2.11-1.43C12.91,194.32,12.41,194.86,10.98,194.55z"/>
					<path class="st2" d="M-2.13,204.83c0.21-0.56,0.41-1.13,0.67-1.83c0.95,0.95,0.95,0.95-0.09,2.03
						C-1.74,204.96-1.93,204.9-2.13,204.83z"/>
					<path class="st2" d="M3.35,208.32c0.06-0.55,0.12-1.09,0.22-1.98C4.66,207.25,4.66,207.82,3.35,208.32z"/>
					<path class="st2" d="M15.29,198.93c-0.43,0-0.85,0-1.28,0c0-0.18,0-0.35-0.01-0.53c0.43,0,0.85,0,1.28,0
						C15.29,198.57,15.29,198.75,15.29,198.93z"/>
				</g>
				<g>
					<path class="st2" d="M227.62,200.17c1.07,7.23-15.2,28.3-31.75,19.7c-4.26-2.21-7.28-5.31-9.49-9.42
						c-0.75-1.39-0.85-2.72,0.21-3.92c3.31-3.72,0.64-1.85,23.51-17.34c2.12-1.43,4.34-2.72,6.48-4.13
						c1.07-0.71,1.93-0.49,2.96,0.16C223.95,188,227.6,194.51,227.62,200.17z M190.63,205.3c2.72,4.55,1.11,1.83,4.58,6.2
						c6.48,8.18,17.39,1.98,24.12-6c2.44-2.9,2.86-6.26,1.06-9.73c-1.48-2.87-4.04-4.75-6.17-6.91
						C211.47,189.97,192.79,202.97,190.63,205.3z M216.33,187.7c3.36,4.58,9.4,8.81,5.77,16.58c-1.97,4.22-5.66,6.84-9.33,9.44
						c-1.97,1.39-4.15,2.77-6.47,2.85c-10.37,0.37-7.77,1.23-17.01-9.44c-1.77,0.89-1.94,1.22-1.29,2.66
						c2.47,5.5,7.12,8.61,12.6,10.07c9.56,2.55,19.42-6.08,24.05-14.55c1.06-1.95,1.84-4.18,1.47-6.45
						c-0.79-4.74-3.23-8.6-6.9-11.67C218.29,186.42,217.27,186.2,216.33,187.7z"/>
					<path class="st2" d="M210.4,203.12c0.83,0.83,1.33,1.33,1.95,1.96C210.29,205.56,210,205.32,210.4,203.12z"/>
					<path class="st2" d="M210.98,194.55c-0.02-1.72,0.91-1.63,2.11-1.43C212.91,194.32,212.41,194.86,210.98,194.55z"/>
					<path class="st2" d="M197.87,204.83c0.21-0.56,0.41-1.13,0.67-1.83c0.95,0.95,0.95,0.95-0.09,2.03
						C198.26,204.96,198.07,204.9,197.87,204.83z"/>
					<path class="st2" d="M203.35,208.32c0.06-0.55,0.12-1.09,0.22-1.98C204.66,207.25,204.66,207.82,203.35,208.32z"/>
					<path class="st2" d="M215.29,198.93c-0.43,0-0.85,0-1.28,0c0-0.18,0-0.35-0.01-0.53c0.43,0,0.85,0,1.28,0
						C215.29,198.57,215.29,198.75,215.29,198.93z"/>
				</g>
				<path class="st2" d="M158.8,195c2.44-1.67,4.71-3.14,7.51-2.88c5.48,0.51,10.64,5.31,10.17,10.29
					c-0.32,3.43-1.81,6.01-5.27,7.46c-3.48,1.46-6.62,0.96-9.74-0.68c-1.3-0.68-2.2-0.6-3.34,0.38c-4.67,4.02-12.05,3.09-15.43-2.04
					c-1.16-1.76-1.9-3.86-2.54-5.89c-1.42-4.52,3.81-10.83,8.52-10.64c3.22,0.13,6.02,0.66,8.39,2.91
					C157.54,194.35,158.18,194.61,158.8,195z M149.9,192.71c-8.91-0.03-11.08,9.95-3.54,16.15c1.7,1.4,3.86,1.73,6.09,1.43
					c3.67-0.49,5.73-2.76,7.33-5.92c0.92-1.82,0.92-3.34-0.15-4.84c-1.14-1.6-2.45-3.1-3.84-4.49
					C154.14,193.39,152.11,192.5,149.9,192.71z M161.29,206.56c2.94,3,8.23,3.4,11.05,0.78c4.6-4.26,2.41-9.68-2.74-12.46
					c-3.79-2.04-7.78-0.64-9.1,1.89c0.6,1.69,1.52,3.28,1.65,4.94C162.27,203.35,161.59,205.04,161.29,206.56z"/>
			</g>
			<path class="st2" d="M145.59,1.06c-0.37-1.01-0.59-1.62-0.89-2.44c0.72-0.57,1.46-1.14,2.22-1.74c0.97,0.66,1.77,1.2,2.63,1.79
				C148.84,0.49,146.89-0.05,145.59,1.06z"/>
			<path class="st2" d="M170.61,2.46c0,1.21,0,2.07,0,3.04c-1.31,0.42-2.61,0.84-4.05,1.3c-0.29-1.3-0.54-2.45-0.83-3.75
				C167.22,1.95,168.9,3.44,170.61,2.46z"/>
			<g>
				<path class="st2" d="M107.83,4.74c3.68-0.52,9.52,4.94,9.27,9.65c-0.66,12.57-18.83,12.48-18.91,0.74
					C98.16,9.26,103.31,4.67,107.83,4.74z M108.09,6.38c-4.07-0.14-8.24,4.03-8.36,8.39c-0.12,3.98,3.4,7.4,7.71,7.51
					c3.68,0.09,7.88-4.04,7.99-7.86C115.52,10.98,111.43,6.5,108.09,6.38z"/>
				<path class="st2" d="M101.14,13.02c1.28-0.56,2.29-1,3.47-1.52c0.66,0.74,1.34,1.52,2.31,2.61c-1.45,0.62-2.65,1.13-4.09,1.75
					C102.28,14.94,101.77,14.09,101.14,13.02z"/>
			</g>
		</g>
	</g>
</g>
</svg>
